<svg id="Layer_3" enable-background="new 0 0 64 64" height="20" viewBox="0 0 64 64" width="20" xmlns="http://www.w3.org/2000/svg"><path d="m25 24h4v14h-4z" fill="#857970"/><path d="m42.875 7.689c-.835.204-1.701.311-2.583.311h-2.292v8.974c0 3.288 1.078 6.45 3.02 9.027l-.012.009c-.912-1.22-2.368-2.01-4.008-2.01-2.761 0-5 2.239-5 5v1-1c0-2.761-2.239-5-5-5-2.761 0-5 2.239-5 5v1-1c0-2.761-2.239-5-5-5-2.761 0-5 2.239-5 5v1-1c0-2.761-2.239-5-5-5-2.761 0-5 2.239-5 5v1-3c0-13.807 11.193-25 25-25 6.027 0 11.556 2.133 15.874 5.685z" fill="#e4725f"/><path d="m62 8v8.974c0 4.452-1.977 8.673-5.397 11.523l-6.603 5.503-6.603-5.502c-3.42-2.85-5.397-7.072-5.397-11.524v-8.974h2.292c4.111 0 7.87-2.323 9.708-6 1.839 3.677 5.597 6 9.708 6z" fill="#f0d365"/><circle cx="50" cy="18" fill="#645b54" r="8"/><ellipse cx="48.5" cy="18" fill="#857970" rx="6.5" ry="7.855"/><path d="m2 38h50v24h-50z" fill="#5f986e"/><path d="m44 58c0-2.209 1.791-4 4-4v-8c-2.209 0-4-1.791-4-4h-34c0 2.209-1.791 4-4 4v8c2.209 0 4 1.791 4 4z" fill="#7ecb92"/><circle cx="27" cy="50" fill="#b49e4c" r="8"/><ellipse cx="25.5" cy="50" fill="#f0d365" rx="6.5" ry="7.855"/><g fill="#fff"><path d="m27 55h-3v-2h3c.551 0 1-.448 1-1s-.449-1-1-1c-1.654 0-3-1.346-3-3s1.346-3 3-3h3v2h-3c-.551 0-1 .448-1 1s.449 1 1 1c1.654 0 3 1.346 3 3s-1.346 3-3 3z"/><path d="m26 57.931c.328.041.661.069 1 .069s.672-.028 1-.069v-3.931h-2z"/><path d="m49 21c-.256 0-.512-.098-.707-.293l-2-2 1.414-1.414 1.293 1.293 3.293-3.293 1.414 1.414-4 4c-.195.195-.451.293-.707.293z"/><path d="m28 42.069c-.328-.041-.661-.069-1-.069s-.672.028-1 .069v3.931h2z"/></g></svg>