<svg id="Capa_1" enable-background="new 0 0 512.001 512.001" height="512" viewBox="0 0 512.001 512.001" width="512" xmlns="http://www.w3.org/2000/svg"><g><g><path d="m288.502 14.216c5.759-8.062 17.377-9.024 24.383-2.018l18.581 18.582c7.005 7.005 6.044 18.624-2.018 24.382l-49.443 35.317-26.791-26.86z" fill="#a4ccff"/><path d="m160.334 143.776h199.876v352.71h-199.876z" fill="#ffe07d"/><path d="m199.888 183.856h160.322v-40.081h-208.419v352.71c0 4.427 3.589 8.016 8.016 8.016h16.032v-296.596c0-13.282 10.767-24.049 24.049-24.049z" fill="#ffd064"/><path d="m360.21 159.808h-208.419c-4.427 0-8.016-3.589-8.016-8.016v-48.097c0-4.427 3.589-8.016 8.016-8.016h208.419c4.427 0 8.016 3.589 8.016 8.016v48.097c0 4.427-3.589 8.016-8.016 8.016z" fill="#fff0af"/><path d="m223.5 14.216c-5.759-8.062-17.377-9.024-24.383-2.018l-18.581 18.582c-7.005 7.005-6.044 18.624 2.018 24.382l49.443 35.317 26.791-26.86z" fill="#a4ccff"/><path d="m191.872 135.759c-13.282 0-24.048-10.767-24.048-24.048v-16.032h-16.032c-4.427 0-8.016 3.589-8.016 8.016v48.097c0 4.427 3.589 8.016 8.016 8.016h208.418c4.427 0 8.016-3.589 8.016-8.016v-16.032h-176.354z" fill="#ffe07d"/><path d="m231.952 159.808h48.097v344.693h-48.097z" fill="#95d6a4"/><path d="m264.017 63.614h-16.032c-8.855 0-16.032 7.178-16.032 16.032v424.855h48.097v-424.854c-.001-8.855-7.179-16.033-16.033-16.033z" fill="#8bb3ea"/><path d="m231.952 95.679h48.097v64.129h-48.097z" fill="#a4ccff"/><path d="m392.711 310.812c5.759-8.062 17.377-9.024 24.383-2.018l18.581 18.582c7.005 7.005 6.044 18.624-2.018 24.382l-49.443 35.317-26.791-26.86z" fill="#ff9a9f"/><path d="m223.936 424.34 24.048 80.161h240.484c4.427 0 8.016-3.589 8.016-8.016v-72.145z" fill="#95d6a4"/><path d="m272.033 464.421h224.452v-40.081h-272.549v80.161h24.048v-16.032c0-13.282 10.767-24.048 24.049-24.048z" fill="#78c2a4"/><path d="m496.484 440.372h-272.548c-4.427 0-8.016-3.589-8.016-8.016v-32.064c0-4.427 3.589-8.016 8.016-8.016h272.548c4.427 0 8.016 3.589 8.016 8.016v32.064c.001 4.427-3.588 8.016-8.016 8.016z" fill="#b3e59f"/><path d="m327.709 310.812c-5.759-8.062-17.377-9.024-24.383-2.018l-18.581 18.582c-7.005 7.005-6.044 18.624 2.018 24.382l49.443 35.317 26.791-26.86z" fill="#ff9a9f"/><path d="m272.033 416.324c-13.282 0-24.048-10.767-24.048-24.048h-24.048c-4.427 0-8.016 3.589-8.016 8.016v32.064c0 4.427 3.589 8.016 8.016 8.016h272.548c4.427 0 8.016-3.589 8.016-8.016v-16.032z" fill="#95d6a4"/><path d="m336.162 440.372h48.097v64.129h-48.097z" fill="#95d6a4"/><path d="m368.226 360.211h-16.032c-8.855 0-16.032 7.178-16.032 16.032v128.258h48.097v-128.258c0-8.854-7.178-16.032-16.033-16.032z" fill="#ff8086"/><path d="m336.162 392.275h48.097v48.097h-48.097z" fill="#ff9a9f"/><path d="m152.228 222.635c5.759-8.062 17.377-9.024 24.383-2.018l18.581 18.582c7.005 7.005 6.044 18.624-2.018 24.382l-49.443 35.317-26.791-26.86z" fill="#b3e59f"/><path d="m15.517 352.195v144.29c0 4.427 3.589 8.016 8.016 8.016h192.387c4.427 0 8.016-3.589 8.016-8.016v-144.29z" fill="#ff8086"/><path d="m63.614 392.275h160.323v-40.081h-208.42v144.29c0 4.427 3.589 8.016 8.016 8.016h16.032v-88.177c0-13.281 10.767-24.048 24.049-24.048z" fill="#e5646e"/><path d="m223.936 368.227h-208.419c-4.427 0-8.016-3.589-8.016-8.016v-48.097c0-4.427 3.589-8.016 8.016-8.016h208.419c4.427 0 8.016 3.589 8.016 8.016v48.097c0 4.427-3.589 8.016-8.016 8.016z" fill="#ff9a9f"/><path d="m87.226 222.635c-5.759-8.062-17.377-9.024-24.383-2.018l-18.581 18.582c-7.005 7.005-6.044 18.624 2.018 24.382l49.443 35.317 26.791-26.86z" fill="#b3e59f"/><path d="m55.597 344.179c-13.282 0-24.048-10.767-24.048-24.048v-16.032h-16.032c-4.427 0-8.016 3.589-8.016 8.016v48.097c0 4.427 3.589 8.016 8.016 8.016h208.419c4.427 0 8.016-3.589 8.016-8.016v-16.032h-176.355z" fill="#ff8086"/><path d="m95.678 368.227h48.097v136.274h-48.097z" fill="#95d6a4"/><path d="m127.743 272.034h-16.033c-8.855 0-16.032 7.178-16.032 16.032v216.435h48.097v-216.435c0-8.855-7.178-16.032-16.032-16.032z" fill="#95d6a4"/><path d="m95.678 304.098h48.097v64.129h-48.097z" fill="#b3e59f"/></g><g><path d="m144.291 165.366v18.491c0 4.142 3.358 7.5 7.5 7.5s7.5-3.358 7.5-7.5v-16.548h40.593c4.142 0 7.5-3.358 7.5-7.5s-3.358-7.5-7.5-7.5h-48.093c-.285 0-.516-.231-.516-.516v-48.097c0-.285.231-.516.516-.516h72.661v168.855c0 4.142 3.358 7.5 7.5 7.5s7.5-3.358 7.5-7.5v-168.856h33.097v184.887c0 4.142 3.358 7.5 7.5 7.5s7.5-3.358 7.5-7.5v-120.758h65.161v136.79c0 4.142 3.358 7.5 7.5 7.5s7.5-3.358 7.5-7.5v-138.732c4.774-2.649 8.016-7.738 8.016-13.574v-48.097c0-8.556-6.96-15.516-15.516-15.516h-64.083l37.68-26.914c5.64-4.029 9.202-10.301 9.774-17.208.572-6.908-1.912-13.68-6.813-18.581l-18.58-18.582c-4.901-4.901-11.68-7.389-18.581-6.813-6.908.572-13.18 4.134-17.208 9.774l-26.398 36.957-26.398-36.956c-4.028-5.64-10.3-9.203-17.208-9.774-6.901-.574-13.68 1.911-18.581 6.813l-18.581 18.582c-4.901 4.901-7.384 11.673-6.813 18.581.572 6.907 4.134 13.179 9.774 17.208l37.68 26.914h-64.083c-8.556 0-15.516 6.96-15.516 15.516v48.097c0 5.835 3.242 10.924 8.016 13.573zm103.694-94.252h16.032c4.705 0 8.532 3.828 8.532 8.532v8.532h-33.097v-8.532c0-4.704 3.827-8.532 8.533-8.532zm112.741 32.581v48.097c0 .285-.231.516-.516.516h-72.661v-49.129h72.661c.285 0 .516.231.516.516zm-66.121-85.12c1.482-2.075 3.698-3.334 6.239-3.544 2.545-.208 4.934.667 6.737 2.47l18.581 18.582c1.803 1.803 2.68 4.196 2.47 6.737s-1.469 4.757-3.544 6.239l-37.811 27.008c-1.551-10.115-9.565-18.13-19.68-19.681zm-111.236 24.245c-.21-2.542.667-4.934 2.47-6.737l18.581-18.582c1.803-1.803 4.195-2.679 6.737-2.47 2.542.21 4.757 1.469 6.239 3.544l27.008 37.811c-10.115 1.55-18.13 9.565-19.681 19.68l-37.811-27.008c-2.074-1.482-3.333-3.697-3.543-6.238z"/><path d="m496.485 384.776h-96.148l37.68-26.915c5.64-4.029 9.203-10.301 9.774-17.208s-1.912-13.68-6.813-18.581l-18.582-18.582c-4.9-4.9-11.666-7.381-18.581-6.813-6.907.572-13.179 4.134-17.208 9.774l-26.397 36.959-26.398-36.957c-4.029-5.64-10.301-9.203-17.208-9.774-6.911-.568-13.68 1.912-18.581 6.813l-18.582 18.582c-4.901 4.901-7.384 11.673-6.813 18.581.572 6.907 4.134 13.179 9.774 17.208l37.68 26.915h-88.648v-10.991c4.774-2.649 8.016-7.738 8.016-13.574v-48.097c0-8.556-6.96-15.516-15.516-15.516h-64.083l37.68-26.914c5.64-4.029 9.203-10.301 9.774-17.209.571-6.907-1.912-13.679-6.813-18.58l-18.582-18.582c-4.901-4.901-11.676-7.384-18.581-6.813-6.907.572-13.179 4.134-17.208 9.774l-26.398 36.957-26.398-36.957c-4.028-5.64-10.3-9.203-17.208-9.774-6.91-.572-13.68 1.912-18.581 6.813l-18.582 18.581c-4.901 4.901-7.384 11.673-6.813 18.58.572 6.908 4.134 13.18 9.774 17.209l37.68 26.914h-64.078c-8.556 0-15.516 6.96-15.516 15.516v48.097c0 5.836 3.242 10.925 8.016 13.574v122.701c0 8.556 6.96 15.516 15.516 15.516h192.387c8.556 0 15.516-6.96 15.516-15.516v-48.613h72.658c4.142 0 7.5-3.358 7.5-7.5s-3.358-7.5-7.5-7.5h-72.658v-33.097h97.226v97.226h-72.661c-4.142 0-7.5 3.358-7.5 7.5s3.358 7.5 7.5 7.5h232.468c8.556 0 15.516-6.96 15.516-15.516v-50.557c4.774-2.649 8.016-7.738 8.016-13.574v-32.064c0-8.556-6.961-15.516-15.516-15.516zm-272.033-72.662v48.097c0 .285-.231.516-.516.516h-72.662v-49.129h72.662c.285 0 .516.231.516.516zm-112.742-32.581h16.032c4.705 0 8.532 3.828 8.532 8.532v8.532h-33.097v-8.532c.001-4.704 3.829-8.532 8.533-8.532zm24.565 32.065v185.403h-33.097v-185.403zm22.056-84.604c1.482-2.075 3.698-3.334 6.239-3.544 2.539-.208 4.934.667 6.737 2.47l18.582 18.582c1.803 1.803 2.68 4.195 2.47 6.736-.21 2.542-1.469 4.757-3.544 6.24l-37.811 27.008c-1.551-10.115-9.565-18.13-19.68-19.681zm-111.236 24.244c-.21-2.541.667-4.933 2.47-6.736l18.582-18.582c1.803-1.803 4.194-2.682 6.737-2.47 2.541.21 4.757 1.469 6.239 3.544l27.008 37.811c-10.115 1.55-18.13 9.565-19.68 19.68l-37.811-27.008c-2.076-1.482-3.335-3.697-3.545-6.239zm-24.078 245.247v-120.758h40.593c4.142 0 7.5-3.358 7.5-7.5s-3.358-7.5-7.5-7.5h-48.093c-.285 0-.516-.231-.516-.516v-48.097c0-.285.231-.516.516-.516h72.661v185.403h-64.645c-.285 0-.516-.231-.516-.516zm193.419 0c0 .285-.231.516-.516.516h-64.646v-121.274h65.162zm280.565-96.193v32.064c0 .285-.231.516-.516.516h-104.727v-33.097h104.726c.285.001.517.232.517.517zm-153.339-15.516v-8.533c0-4.705 3.828-8.532 8.532-8.532h16.032c4.705 0 8.532 3.828 8.532 8.532v8.533zm55.153-69.604c1.482-2.075 3.698-3.334 6.239-3.544 2.541-.209 4.934.667 6.737 2.47l18.582 18.582c1.803 1.803 2.68 4.196 2.47 6.737-.21 2.542-1.469 4.757-3.544 6.239l-37.811 27.008c-1.55-10.115-9.565-18.13-19.68-19.681zm-111.236 24.244c-.21-2.541.667-4.934 2.47-6.737l18.582-18.582c1.803-1.803 4.195-2.679 6.737-2.47 2.541.21 4.757 1.469 6.239 3.544l27.008 37.811c-10.115 1.55-18.13 9.565-19.681 19.68l-37.811-27.008c-2.075-1.481-3.334-3.697-3.544-6.238zm56.083 60.36h33.097v97.226h-33.097zm144.806 97.225h-96.71v-49.129h97.226v48.613c.001.285-.231.516-.516.516z"/></g></g></svg>