<svg id="Layer_1" enable-background="new 0 0 256 256" height="512" viewBox="0 0 256 256" width="512" xmlns="http://www.w3.org/2000/svg"><g><g><ellipse cx="128" cy="128" fill="#526faa" rx="124" ry="124" transform="matrix(.707 -.707 .707 .707 -53.019 128)"/></g><g><path d="m215.681 40.319c-25.484-25.485-59.301-37.55-92.681-36.211 30.048 1.205 59.741 13.27 82.681 36.211 48.425 48.425 48.425 126.938 0 175.363-22.941 22.941-52.634 35.006-82.681 36.211 33.38 1.339 67.197-10.726 92.681-36.211 48.425-48.426 48.425-126.938 0-175.363z" fill="#34518c"/></g><g><path d="m40.319 215.681c25.485 25.484 59.302 37.55 92.681 36.211-30.048-1.205-59.741-13.27-82.681-36.211-48.425-48.425-48.425-126.938 0-175.363 22.94-22.94 52.633-35.005 82.681-36.21-33.38-1.339-67.197 10.726-92.681 36.211-48.425 48.425-48.425 126.937 0 175.362z" fill="#708dc8"/></g><g><path d="m128 253.94c-32.266 0-64.532-12.282-89.096-36.845-49.128-49.127-49.128-129.063 0-178.19 49.127-49.127 129.064-49.127 178.191 0 49.128 49.127 49.128 129.063 0 178.19-24.563 24.564-56.828 36.845-89.095 36.845zm0-247.882c-31.242 0-62.483 11.892-86.268 35.675-47.567 47.568-47.567 124.966 0 172.534 47.57 47.568 124.969 47.567 172.535 0 47.567-47.568 47.567-124.966 0-172.534-23.784-23.783-55.025-35.675-86.267-35.675z" fill="#690589"/></g><g><path d="m12.085 128.638c-1.104 0-2-.896-2-2 0-4.1.258-8.221.766-12.25.139-1.097 1.15-1.868 2.234-1.734 1.096.138 1.872 1.139 1.734 2.234-.487 3.864-.734 7.817-.734 11.75 0 1.105-.896 2-2 2z" fill="#690589"/></g><g><ellipse cx="128" cy="128" fill="#fcc24c" rx="92.917" ry="92.916" transform="matrix(.707 -.707 .707 .707 -53.019 128)"/></g><g><circle cx="128" cy="128" fill="#8852a8" r="59.848"/></g><g><circle cx="128" cy="128" fill="#fcc24c" r="14.928"/></g><g><path d="m128 222.872c-24.307 0-48.612-9.252-67.116-27.756-37.008-37.008-37.008-97.224 0-134.231 37.008-37.009 97.225-37.009 134.232 0 37.008 37.008 37.008 97.224 0 134.231-18.504 18.504-42.809 27.756-67.116 27.756zm0-185.746c-23.282 0-46.563 8.862-64.288 26.586-35.448 35.448-35.448 93.127 0 128.575 35.449 35.448 93.127 35.448 128.576 0 35.448-35.448 35.448-93.127 0-128.575-17.725-17.724-41.006-26.586-64.288-26.586z" fill="#690589"/></g><g><path d="m128 189.848c-16.52 0-32.051-6.434-43.732-18.115-11.682-11.682-18.116-27.213-18.116-43.733s6.434-32.051 18.115-43.732c11.682-11.682 27.213-18.116 43.733-18.116s32.051 6.434 43.732 18.115c11.682 11.681 18.115 27.212 18.115 43.732s-6.434 32.051-18.115 43.732c-11.681 11.683-27.212 18.117-43.732 18.117zm0-119.696c-15.451 0-29.979 6.018-40.904 16.943s-16.944 25.453-16.944 40.905 6.018 29.979 16.943 40.904 25.453 16.943 40.904 16.943 29.979-6.018 40.904-16.943 16.943-25.453 16.943-40.904-6.018-29.979-16.943-40.904c-10.924-10.926-25.452-16.944-40.903-16.944z" fill="#690589"/></g><g><path d="m128 144.919c-4.335 0-8.67-1.65-11.97-4.95-6.6-6.601-6.6-17.34 0-23.939s17.34-6.6 23.939 0c3.197 3.197 4.958 7.448 4.958 11.97 0 4.521-1.761 8.772-4.958 11.97-3.299 3.3-7.634 4.949-11.969 4.949zm0-29.84c-3.311 0-6.621 1.26-9.142 3.78-5.04 5.041-5.04 13.242 0 18.283 5.041 5.039 13.242 5.04 18.283 0 2.441-2.442 3.786-5.688 3.786-9.142s-1.345-6.7-3.786-9.142c-2.52-2.52-5.83-3.779-9.141-3.779z" fill="#690589"/></g><g><path d="m189.192 39.67 35-35 4.509 22.629-34.999 34.999z" fill="#fcc24c"/></g><g><path d="m216.33 66.808 34.999-35-22.628-4.509-34.999 34.999z" fill="#fcc24c"/></g><g><path d="m193.702 64.298c-.194 0-.39-.028-.58-.086-.706-.214-1.237-.799-1.381-1.523l-4.511-22.628c-.13-.656.075-1.333.548-1.805l34.999-35c.522-.522 1.293-.713 1.994-.5.706.214 1.237.799 1.381 1.523l4.511 22.628c.13.656-.075 1.333-.548 1.805l-34.999 35c-.381.381-.891.586-1.414.586zm-2.339-23.97 3.569 17.912 31.598-31.598-3.569-17.912z" fill="#690589"/></g><g><path d="m216.33 68.808c-.13 0-.261-.013-.391-.039l-22.628-4.509c-.724-.144-1.31-.675-1.523-1.381s-.021-1.473.5-1.994l34.999-35c.473-.473 1.148-.679 1.805-.547l22.628 4.509c.724.144 1.31.675 1.523 1.381s.021 1.473-.5 1.994l-34.999 35c-.379.379-.889.586-1.414.586zm-18.569-7.74 17.911 3.569 31.599-31.599-17.911-3.569z" fill="#690589"/></g><g><g><path d="m128 133c-1.279 0-2.56-.488-3.535-1.464-1.953-1.953-1.953-5.119 0-7.071l89.021-89.021c1.951-1.952 5.119-1.952 7.07 0 1.953 1.953 1.953 5.119 0 7.071l-89.02 89.021c-.976.976-2.257 1.464-3.536 1.464z" fill="#f4efed"/></g></g><g><g><path d="m128 135c-1.87 0-3.628-.728-4.95-2.05-1.321-1.322-2.05-3.08-2.05-4.95s.729-3.628 2.051-4.95l89.021-89.02c1.321-1.322 3.079-2.05 4.949-2.05s3.628.729 4.95 2.05c1.321 1.322 2.05 3.08 2.05 4.95s-.729 3.628-2.051 4.95l-89.021 89.02c-1.321 1.322-3.079 2.05-4.949 2.05zm89.021-99.021c-.802 0-1.555.312-2.12.878l-89.021 89.021c-.566.567-.879 1.32-.879 2.122s.312 1.555.879 2.121c1.133 1.134 3.11 1.133 4.241 0l89.021-89.021c.566-.567.879-1.32.879-2.122s-.312-1.555-.879-2.121c-.567-.565-1.32-.878-2.121-.878z" fill="#690589"/></g></g></g></svg>