<svg height="512pt" viewBox="0 0 512 512" width="512pt" xmlns="http://www.w3.org/2000/svg"><path d="m512 256c0 141.386719-114.613281 256-256 256s-256-114.613281-256-256 114.613281-256 256-256 256 114.613281 256 256zm0 0" fill="#b3e529"/><path d="m512 256c0 26.050781-3.890625 51.191406-11.128906 74.871094-32.011719 104.847656-129.542969 181.128906-244.871094 181.128906-104.558594 0-194.488281-62.699219-234.230469-152.550781-14-31.628907-21.769531-66.628907-21.769531-103.449219 0-46.21875 12.25-89.570312 33.679688-127 44.121093 77.070312 127.160156 129 222.320312 129s178.210938-51.929688 222.320312-129c21.429688 37.429688 33.679688 80.78125 33.679688 127zm0 0" fill="#95d600"/><path d="m255.128906 169.75-71.828125 124.421875-1.230469 2.128906-73.058593-126.550781c-12.960938-22.441406 3.238281-50.5 29.160156-50.5h87.796875c25.921875 0 42.121094 28.058594 29.160156 50.5zm0 0" fill="#a63914"/><path d="m255.128906 169.75-71.828125 124.421875v-174.921875h42.667969c25.921875 0 42.121094 28.058594 29.160156 50.5zm0 0" fill="#eb7722"/><path d="m239.710938 251.761719c0 31.417969-25.152344 56.96875-56.410157 57.617187-.410156.019532-.820312.019532-1.230469.019532-31.839843 0-57.640624-25.808594-57.640624-57.636719 0-31.839844 25.800781-57.640625 57.640624-57.640625.410157 0 .820313 0 1.230469.019531 31.257813.648437 56.410157 26.1875 56.410157 57.621094zm0 0" fill="#ffd112"/><path d="m239.710938 251.761719c0 31.417969-25.152344 56.96875-56.410157 57.617187v-115.238281c31.257813.648437 56.410157 26.1875 56.410157 57.621094zm0 0" fill="#ffe955"/><path d="m364.140625 404.820312c0 5.621094-.261719 11.167969-.75 16.648438-.230469 2.453125-.492187 4.871094-.820313 7.28125-.539062 4.109375-1.210937 8.191406-2.019531 12.210938-.242187 1.1875-.5 2.359374-.789062 3.527343-3.300781 13.542969-9.660157 25.722657-18.261719 35.882813-11.398438 13.480468-26.710938 23.417968-43.988281 28.277344-3.351563.953124-6.773438 1.703124-10.25 2.25h-.011719c-4.578125.730468-9.269531 1.101562-14.019531 1.101562h-17.230469c-25.25 0-49.648438-3.660156-72.699219-10.46875-72.371093-21.402344-131.390625-73.929688-161.53125-142.082031-3.238281-7.308594-6.140625-14.808594-8.699219-22.46875 20.328126-50.601563 62.730469-89.960938 115.28125-106.152344 2.71875-.839844 5.46875-1.617187 8.238282-2.339844 1.839844-.46875 3.691406-.910156 5.558594-1.328125h.011718c13.21875-2.960937 27-4.480468 41.140625-4.390625h.039063c13.25.089844 26.171875 1.621094 38.621094 4.429688 4.699218 1.0625 9.320312 2.300781 13.867187 3.722656 18.410156 5.726563 35.59375 14.308594 51.011719 25.238281 15.539062 11 29.289062 24.359375 40.730468 39.558594.160157.203125.308594.402344.460938.609375 10.539062 14.121094 19.089844 29.800781 25.207031 46.613281 1.339844 3.667969 2.5625 7.378906 3.660157 11.148438 2.773437 9.5 4.792968 19.300781 5.980468 29.359375.832032 7.011719 1.261719 14.140625 1.261719 21.371093zm0 0" fill="#a63914"/><path d="m364.140625 404.820312c0 5.621094-.261719 11.167969-.75 16.648438-.230469 2.453125-.492187 4.871094-.820313 7.28125-.539062 4.109375-1.210937 8.191406-2.019531 12.210938-.242187 1.1875-.5 2.359374-.789062 3.527343-3.300781 13.542969-9.660157 25.722657-18.261719 35.882813-11.398438 13.480468-26.710938 23.417968-43.988281 28.277344-3.351563.953124-6.773438 1.703124-10.25 2.25h-.011719c-4.578125.730468-9.269531 1.101562-14.019531 1.101562h-17.230469c-25.25 0-49.648438-3.660156-72.699219-10.46875v-278.761719h.039063c13.25.089844 26.171875 1.621094 38.621094 4.429688 4.699218 1.0625 9.320312 2.300781 13.867187 3.722656 18.410156 5.726563 35.59375 14.308594 51.011719 25.238281 15.539062 11 29.289062 24.359375 40.730468 39.558594.160157.203125.308594.402344.460938.609375 10.539062 14.121094 19.089844 29.800781 25.207031 46.613281 1.339844 3.667969 2.5625 7.378906 3.660157 11.148438 2.773437 9.5 4.792968 19.300781 5.980468 29.359375.832032 7.011719 1.261719 14.140625 1.261719 21.371093zm0 0" fill="#eb7722"/><path d="m276.230469 384.171875c0 51.597656-41.5 93.488281-92.929688 94.136719-.410156.019531-.820312.019531-1.230469.019531-52 0-94.160156-42.148437-94.160156-94.15625 0-52 42.160156-94.160156 94.160156-94.160156.410157 0 .820313 0 1.230469.019531 51.429688.648438 92.929688 42.546875 92.929688 94.140625zm0 0" fill="#ffd112"/><path d="m276.230469 384.171875c0 51.597656-41.5 93.488281-92.929688 94.136719v-188.277344c51.429688.648438 92.929688 42.546875 92.929688 94.140625zm0 0" fill="#ffe955"/><path d="m183.300781 374.609375c-3.582031-1.210937-5.941406-2.640625-5.941406-4.988281 0-2.320313 1.871094-3.199219 4.730469-3.199219.390625 0 .789062.019531 1.210937.058594 4.667969.320312 11.289063 2.480469 17.378907 5.109375 4.53125 1.949218 9.800781.019531 11.921874-4.441406l1.449219-3.027344c2.269531-4.761719.058594-10.492188-4.851562-12.429688-3-1.179687-6.210938-2.171875-9.527344-2.941406-4.160156-.960938-7.113281-4.648438-7.113281-8.910156v-.628906c0-2.53125-1.019532-4.8125-2.679688-6.460938-1.660156-1.660156-3.9375-2.679688-6.46875-2.679688h-.109375c-5 .058594-9.03125 4.128907-9.03125 9.140626v1.398437c0 3.902344-2.347656 7.511719-6.019531 8.839844-10.628906 3.839843-17.011719 11.820312-17.011719 22.589843 0 19.359376 20.402344 21.519532 32.0625 24.820313 4.660157 1.320313 7.929688 2.832031 7.929688 5.691406 0 2.757813-2.421875 3.96875-6.160157 3.96875-.558593 0-1.148437-.03125-1.769531-.089843-5.539062-.480469-13.152343-3.078126-19.761719-6.667969-4.539062-2.480469-10.179687-.613281-12.46875 4.019531l-1.25 2.539062c-2.199218 4.429688-.480468 9.851563 3.910157 12.128907 4.238281 2.210937 8.878906 3.960937 13.660156 5.222656 4.039063 1.066406 6.878906 4.679687 6.878906 8.859375v1.75c0 2.519531 1.019531 4.808594 2.679688 6.457031 1.628906 1.640625 3.859375 2.652344 6.351562 2.683594h.109375c5.050782 0 9.148438-4.09375 9.148438-9.140625v-1.492188c0-3.980468 2.5625-7.558593 6.371094-8.710937 10.699218-3.226563 18.410156-10.617187 18.410156-22.847656 0-21.179688-22.910156-22.859375-34.039063-26.621094zm0 0" fill="#a63914"/><path d="m425.988281 248.441406-54.269531 94-1.988281 3.449219-56.269531-97.449219c-9.972657-17.28125 2.5-38.890625 22.460937-38.890625h67.617187c19.949219 0 32.429688 21.609375 22.449219 38.890625zm0 0" fill="#a63914"/><path d="m425.988281 248.441406-54.269531 94v-132.890625h31.820312c19.949219 0 32.429688 21.609375 22.449219 38.890625zm0 0" fill="#eb7722"/><path d="m414.121094 311.589844c0 23.851562-18.8125 43.300781-42.402344 44.339844-.660156.039062-1.320312.050781-1.988281.050781-24.519531 0-44.390625-19.871094-44.390625-44.390625 0-24.511719 19.871094-44.390625 44.390625-44.390625.667969 0 1.328125.011719 1.988281.050781 23.589844 1.039062 42.402344 20.5 42.402344 44.339844zm0 0" fill="#ffd112"/><path d="m414.121094 311.589844c0 23.851562-18.8125 43.300781-42.402344 44.339844v-88.679688c23.589844 1.039062 42.402344 20.5 42.402344 44.339844zm0 0" fill="#ffe955"/><path d="m427.539062 457.320312c.839844-1.101562 1.640626-2.230468 2.410157-3.371093-.757813 1.152343-1.558594 2.269531-2.410157 3.371093zm0 0" fill="#a63914"/><path d="m490.578125 358.628906v.011719c-12.5 28.550781-30.046875 54.359375-51.558594 76.328125l-.007812.011719v.007812c-19.480469 19.921875-42.191407 36.683594-67.292969 49.421875v1.640625c-.660156.007813-1.320312.019531-1.988281.019531-.441407 0-.871094 0-1.300781-.011718h-.019532c-22.039062 10.792968-45.859375 18.511718-70.898437 22.589844-3.351563.953124-6.773438 1.703124-10.25 2.25h-.011719c-.839844-.148438-1.671875-.320313-2.5-.5-24.160156-5.308594-43.929688-23.367188-51.058594-47.476563-.613281-2.042969-1.121094-4.121094-1.542968-6.25-1.71875-8.800781-2.628907-17.890625-2.628907-27.191406 0-35.191407 12.960938-67.339844 34.359375-91.949219 16.769532-19.292969 38.730469-33.953125 63.691406-41.8125.269532-.089844.53125-.167969.789063-.25 3.492187-1.070312 7.039063-2.019531 10.628906-2.820312 10.203125-2.277344 20.820313-3.449219 31.722657-3.378907.339843 0 .667968.011719 1.007812.011719 9.851562.140625 19.460938 1.308594 28.730469 3.398438 3.609375.808593 7.171875 1.769531 10.671875 2.859374h.007812c33.609375 10.449219 61.882813 33.289063 79.449219 63.089844zm0 0" fill="#a63914"/><path d="m427.539062 457.320312c.839844-1.101562 1.640626-2.230468 2.410157-3.371093-.757813 1.152343-1.558594 2.269531-2.410157 3.371093zm0 0" fill="#eb7722"/><path d="m490.578125 358.628906v.011719c-12.5 28.550781-30.046875 54.359375-51.558594 76.328125l-.007812.011719v.007812c-19.480469 19.921875-42.191407 36.683594-67.292969 49.421875v-195.128906c9.851562.140625 19.460938 1.308594 28.730469 3.398438 3.609375.808593 7.171875 1.769531 10.671875 2.859374h.007812c33.609375 10.449219 61.882813 33.289063 79.449219 63.089844zm0 0" fill="#eb7722"/><path d="m442.238281 413.558594c0 .5625-.007812 1.121094-.019531 1.679687 0 .160157-.007812.3125-.007812.472657-.011719.367187-.03125.738281-.039063 1.109374-.023437.300782-.03125.601563-.050781.898438-.042969.691406-.089844 1.382812-.152344 2.070312-.019531.359376-.058594.722657-.089844 1.082032-.058594.527344-.117187 1.058594-.179687 1.578125-.007813.121093-.027344.242187-.039063.351562-.070312.550781-.148437 1.089844-.230468 1.621094-.089844.589844-.179688 1.179687-.289063 1.769531-.101563.578125-.210937 1.167969-.332031 1.75-.109375.578125-.238282 1.160156-.367188 1.730469-.210937.917969-.429687 1.828125-.679687 2.738281-.113281.429688-.230469.859375-.363281 1.289063-.117188.429687-.238282.851562-.378907 1.269531l-.007812.011719v.007812c-19.480469 19.921875-42.191407 36.683594-67.292969 49.421875v1.640625c-.660156.007813-1.320312.019531-1.988281.019531-.441407 0-.871094 0-1.300781-.011718h-.019532c-9.53125-.167969-18.621094-2.179688-26.910156-5.6875-26.019531-11-44.28125-36.769532-44.28125-66.8125 0-30.308594 18.601562-56.289063 45.019531-67.109375 3.542969-1.460938 7.210938-2.640625 11-3.507813 4.433594-1.042968 9.011719-1.660156 13.722657-1.839844h.007812c.910156-.03125 1.832031-.050781 2.761719-.050781.667969 0 1.328125.007813 1.988281.019531.261719.007813.511719.019532.769531.03125.550781.019532 1.089844.046876 1.632813.078126 2.167968.121093 4.308594.351562 6.429687.671874.339844.046876.667969.097657 1.007813.160157.3125.046875.632812.097656.941406.160156.519531.089844 1.03125.1875 1.550781.289063.757813.148437 1.527344.320312 2.277344.5.402344.089843.800781.1875 1.191406.289062.101563.019531.210938.050781.308594.070312.53125.140626 1.050781.28125 1.570313.429688.402343.109375.800781.21875 1.191406.351562.75.21875 1.5.457032 2.238281.707032.992187.332031 1.972656.679687 2.941406 1.0625.492188.1875.96875.378906 1.449219.578125.410156.171875.820312.339843 1.230469.519531.410156.171875.820312.351562 1.222656.542969.808594.367187 1.609375.75 2.40625 1.136719.390625.203124.792969.402343 1.183594.613281.367187.1875.738281.386719 1.097656.578125.070313.039062.128906.070312.191406.109375.347657.191406.699219.378906 1.039063.582031.628906.359375 1.261718.730469 1.878906 1.109375.511719.308594 1.011719.621094 1.511719.949219.378906.238281.738281.480468 1.109375.730468 1.179687.789063 2.332031 1.609376 3.460937 2.46875.269531.210938.539063.421876.808594.632813 1.039063.808594 2.0625 1.648437 3.050781 2.519531.289063.25.570313.5.851563.75.859375.777344 1.699219 1.570313 2.519531 2.386719.257812.261719.519531.523437.777344.78125 1.632812 1.660156 3.171875 3.402344 4.632812 5.210937.359375.441407.707032.890626 1.058594 1.351563.589844.757813 1.160156 1.527344 1.710938 2.316406.230468.320313.449218.640625.667968.960938.902344 1.3125 1.75 2.640625 2.550782 4.011719.25.410156.480468.808593.710937 1.230468.507813.886719 1 1.796875 1.46875 2.730469.152344.289063.300781.578125.441406.867187.679688 1.382813 1.328125 2.800782 1.917969 4.242188.203125.457031.382812.929688.5625 1.398438.140625.332031.269531.671874.390625 1.011718.136719.347656.269531.707032.386719 1.070313.179687.5.351562 1 .519531 1.507812.183594.519531.34375 1.050781.5 1.570313.351563 1.121094.660156 2.25.953125 3.390625.140625.570312.277344 1.148437.410156 1.71875.128906.582031.257813 1.160156.367188 1.742187.242187 1.160156.441406 2.328125.621094 3.507813.082031.519531.148437 1.039062.21875 1.5625l.152343 1.289062c.039063.328125.070313.660157.097657.988281.082031.800782.140624 1.601563.191406 2.410157.03125.371093.050781.742187.070312 1.109375.019532.492187.039063.980468.050782 1.472656 0 .097656.007812.199219.007812.296875.011719.582031.019531 1.152344.019531 1.730469zm0 0" fill="#ffd112"/><path d="m427.539062 457.320312c.839844-1.101562 1.640626-2.230468 2.410157-3.371093-.757813 1.152343-1.558594 2.269531-2.410157 3.371093zm0 0" fill="#ffe955"/><path d="m442.238281 413.558594c0 .5625-.007812 1.121094-.019531 1.679687 0 .160157-.007812.3125-.007812.472657-.011719.367187-.03125.738281-.039063 1.109374-.023437.300782-.03125.601563-.050781.898438-.042969.691406-.089844 1.382812-.152344 2.070312-.019531.359376-.058594.722657-.089844 1.082032-.058594.527344-.117187 1.058594-.179687 1.578125-.007813.121093-.027344.242187-.039063.351562-.070312.550781-.148437 1.089844-.230468 1.621094-.089844.589844-.179688 1.179687-.289063 1.769531-.101563.578125-.210937 1.167969-.332031 1.75-.109375.578125-.238282 1.160156-.367188 1.730469-.210937.917969-.429687 1.828125-.679687 2.738281-.113281.429688-.230469.859375-.363281 1.289063-.117188.429687-.238282.851562-.378907 1.269531l-.007812.011719v.007812c-19.480469 19.921875-42.191407 36.683594-67.292969 49.421875v-143.339844c.261719.007813.511719.019532.769531.03125.550781.019532 1.089844.046876 1.632813.078126 2.167968.121093 4.308594.351562 6.429687.671874.339844.046876.667969.097657 1.007813.160157.3125.046875.632812.097656.941406.160156.519531.089844 1.03125.1875 1.550781.289063.757813.148437 1.527344.320312 2.277344.5.402344.089843.800781.1875 1.191406.289062.101563.019531.210938.050781.308594.070312.53125.140626 1.050781.28125 1.570313.429688.402343.109375.800781.21875 1.191406.351562.75.21875 1.5.457032 2.238281.707032.992187.332031 1.972656.679687 2.941406 1.0625.492188.1875.96875.378906 1.449219.578125.410156.171875.820312.339843 1.230469.519531.410156.171875.820312.351562 1.222656.542969.808594.367187 1.609375.75 2.40625 1.136719.390625.203124.792969.402343 1.183594.613281.367187.1875.738281.386719 1.097656.578125.070313.039062.128906.070312.191406.109375.347657.191406.699219.378906 1.039063.582031.628906.359375 1.261718.730469 1.878906 1.109375.511719.308594 1.011719.621094 1.511719.949219.378906.238281.738281.480468 1.109375.730468 1.179687.789063 2.332031 1.609376 3.460937 2.46875.269531.210938.539063.421876.808594.632813 1.039063.808594 2.0625 1.648437 3.050781 2.519531.289063.25.570313.5.851563.75.859375.777344 1.699219 1.570313 2.519531 2.386719.257812.261719.519531.523437.777344.78125 1.632812 1.660156 3.171875 3.402344 4.632812 5.210937.359375.441407.707032.890626 1.058594 1.351563.589844.757813 1.160156 1.527344 1.710938 2.316406.230468.320313.449218.640625.667968.960938.902344 1.3125 1.75 2.640625 2.550782 4.011719.25.410156.480468.808593.710937 1.230468.507813.886719 1 1.796875 1.46875 2.730469.152344.289063.300781.578125.441406.867187.679688 1.382813 1.328125 2.800782 1.917969 4.242188.203125.457031.382812.929688.5625 1.398438.140625.332031.269531.671874.390625 1.011718.136719.347656.269531.707032.386719 1.070313.179687.5.351562 1 .519531 1.507812.183594.519531.34375 1.050781.5 1.570313.351563 1.121094.660156 2.25.953125 3.390625.140625.570312.277344 1.148437.410156 1.71875.128906.582031.257813 1.160156.367188 1.742187.242187 1.160156.441406 2.328125.621094 3.507813.082031.519531.148437 1.039062.21875 1.5625l.152343 1.289062c.039063.328125.070313.660157.097657.988281.082031.800782.140624 1.601563.191406 2.410157.03125.371093.050781.742187.070312 1.109375.019532.492187.039063.980468.050782 1.472656 0 .097656.007812.199219.007812.296875.011719.582031.019531 1.152344.019531 1.730469zm0 0" fill="#ffe955"/><path d="m371.71875 406.53125c-3.328125-1.011719-5.617188-2.152344-5.617188-4.179688 0-1.78125 1.4375-2.460937 3.636719-2.460937.613281 0 1.273438.050781 1.980469.148437 3.511719.460938 8.101562 2 12.339844 3.832032 3.492187 1.507812 7.542968.019531 9.179687-3.410156l1.113281-2.339844c1.75-3.671875.046876-8.082032-3.730468-9.570313-2.3125-.910156-4.78125-1.679687-7.339844-2.269531-3.203125-.742188-5.480469-3.570312-5.480469-6.859375v-.480469c0-1.941406-.789062-3.703125-2.0625-4.980468-1.066406-1.0625-2.457031-1.78125-4.019531-1.992188-.308594-.046875-.628906-.070312-.957031-.070312-3.890625 0-7.042969 3.152343-7.042969 7.042968v1.078125c0 1.210938-.296875 2.390625-.839844 3.429688-.789062 1.53125-2.109375 2.761719-3.789062 3.371093-8.199219 2.960938-13.101563 9.109376-13.101563 17.398438 0 11.351562 9.101563 15.019531 17.402344 17.25 3.050781.820312 5.980469 1.441406 8.328125 2.171875 3.019531.960937 5.0625 2.097656 5.0625 4.078125 0 2.121094-1.859375 3.050781-4.742188 3.050781-.109374 0-.210937 0-.320312-.007812-2.527344-.050781-5.777344-.800781-9.148438-2.011719-2.390624-.859375-4.832031-1.941406-7.121093-3.191406-3.488281-1.898438-7.828125-.457032-9.597657 3.113281l-.960937 1.9375c-1.691406 3.421875-.371094 7.589844 3.007813 9.351563 3.261718 1.699218 6.839843 3.050781 10.523437 4.019531.46875.121093.917969.289062 1.339844.507812 2.378906 1.160157 3.957031 3.582031 3.957031 6.3125v1.347657c0 1.953124.792969 3.710937 2.0625 4.980468 1.277344 1.269532 3.039062 2.0625 4.980469 2.0625.328125 0 .648437-.019531.957031-.070312 3.441406-.460938 6.082031-3.410156 6.082031-6.972656v-1.148438c0-3.070312 1.980469-5.820312 4.910157-6.710938 8.238281-2.480468 14.179687-8.179687 14.179687-17.589843 0-15.667969-16.289063-17.480469-25.171875-20.167969zm0 0" fill="#a63914"/><g fill="#fff"><path d="m310.5 35.714844h-2.003906c-8.871094 0-16.066406-7.191406-16.066406-16.066406v-2h-11.449219v2c0 8.875-7.195313 16.066406-16.066407 16.066406h-2.003906v11.453125h2.003906c8.871094 0 16.066407 7.191406 16.066407 16.066406v2.003906h11.449219v-2.003906c0-8.875 7.195312-16.066406 16.066406-16.066406h2.003906zm0 0"/><path d="m78 206.679688h-1.664062c-7.382813 0-13.367188-5.984376-13.367188-13.367188v-1.664062h-9.527344v1.664062c0 7.382812-5.984375 13.367188-13.363281 13.367188h-1.667969v9.527343h1.667969c7.378906 0 13.363281 5.984375 13.363281 13.363281v1.667969h9.527344v-1.667969c0-7.378906 5.984375-13.363281 13.367188-13.363281h1.664062zm0 0"/><path d="m486 201.679688h-1.664062c-7.382813 0-13.367188-5.984376-13.367188-13.367188v-1.664062h-9.527344v1.664062c0 7.382812-5.984375 13.367188-13.363281 13.367188h-1.667969v9.527343h1.667969c7.378906 0 13.363281 5.984375 13.363281 13.363281v1.667969h9.527344v-1.667969c0-7.378906 5.984375-13.363281 13.367188-13.363281h1.664062zm0 0"/><path d="m177.5 75.847656h-1.664062c-7.382813 0-13.367188-5.984375-13.367188-13.367187v-1.664063h-9.527344v1.664063c0 7.382812-5.984375 13.367187-13.363281 13.367187h-1.667969v9.523438h1.667969c7.378906 0 13.363281 5.984375 13.363281 13.367187v1.667969h9.527344v-1.667969c0-7.382812 5.984375-13.367187 13.367188-13.367187h1.664062zm0 0"/><path d="m389 137.679688h-1.664062c-7.382813 0-13.367188-5.984376-13.367188-13.367188v-1.664062h-9.527344v1.664062c0 7.382812-5.984375 13.367188-13.363281 13.367188h-1.667969v9.527343h1.667969c7.378906 0 13.363281 5.984375 13.363281 13.363281v1.667969h9.527344v-1.667969c0-7.378906 5.984375-13.363281 13.367188-13.363281h1.664062zm0 0"/></g></svg>