<svg height="464pt" viewBox="0 0 464 464" width="464pt" xmlns="http://www.w3.org/2000/svg"><path d="m0 96h400v104h-400zm0 0" fill="#91dc5a"/><g fill="#ff6243"><path d="m240 64v-16h-16v16"/><path d="m224 16h16v16h-16zm0 0"/><path d="m288 16h16v16h-16zm0 0"/><path d="m256 16h16v16h-16zm0 0"/><path d="m224 80h16v16h-16zm0 0"/><path d="m224 368h16v16h-16zm0 0"/><path d="m320 16h16v16h-16zm0 0"/><path d="m352 16h16v16h-16zm0 0"/><path d="m384 16h16v16h-16zm0 0"/><path d="m64 432h16v16h-16zm0 0"/><path d="m96 432h16v16h-16zm0 0"/><path d="m128 432h16v16h-16zm0 0"/><path d="m160 432h16v16h-16zm0 0"/><path d="m192 432h16v16h-16zm0 0"/><path d="m224 432h16v16h-16zm0 0"/><path d="m224 400h16v16h-16zm0 0"/></g><path d="m0 200h400v104h-400zm0 0" fill="#7ed63e"/><path d="m368 152c-13.253906 0-24-10.746094-24-24h-288c0 13.253906-10.746094 24-24 24v48h336zm0 0" fill="#5eac24"/><path d="m32 200v48c13.253906 0 24 10.746094 24 24h288c0-13.253906 10.746094-24 24-24v-48zm0 0" fill="#4e901e"/><path d="m152 96h-16v-64h-96v-16h112zm0 0" fill="#ffe477"/><path d="m424 448h-112v-80h16v64h96zm0 0" fill="#ffe477"/><path d="m280 192h48v16h-48zm0 0" fill="#f1f2f2"/><path d="m72 192h48v16h-48zm0 0" fill="#f1f2f2"/><path d="m432 152v-32h-32v80h32zm0 0" fill="#8cdb53"/><path d="m400 200v104h-360v32h392v-136zm0 0" fill="#5eac24"/><path d="m432 152h32v48h-32zm0 0" fill="#70b53c"/><path d="m432 200v136h-360v32h392v-168zm0 0" fill="#4e901e"/><path d="m48 24c0 13.253906-10.746094 24-24 24s-24-10.746094-24-24 10.746094-24 24-24 24 10.746094 24 24zm0 0" fill="#ffcd00"/><path d="m464 24c0 13.253906-10.746094 24-24 24s-24-10.746094-24-24 10.746094-24 24-24 24 10.746094 24 24zm0 0" fill="#ed1c24"/><path d="m48 440c0 13.253906-10.746094 24-24 24s-24-10.746094-24-24 10.746094-24 24-24 24 10.746094 24 24zm0 0" fill="#ed1c24"/><path d="m464 440c0 13.253906-10.746094 24-24 24s-24-10.746094-24-24 10.746094-24 24-24 24 10.746094 24 24zm0 0" fill="#ffcd00"/><path d="m200 240c22.089844 0 40-17.910156 40-40h-80c0 22.089844 17.910156 40 40 40zm0 0" fill="#e6e7e8"/><path d="m200 160c-22.089844 0-40 17.910156-40 40h80c0-22.089844-17.910156-40-40-40zm0 0" fill="#f1f2f2"/></svg>