<svg height="15pt" viewBox="0 0 512 512" width="15pt" xmlns="http://www.w3.org/2000/svg"><path d="m512 256c0 141.386719-114.613281 256-256 256s-256-114.613281-256-256 114.613281-256 256-256 256 114.613281 256 256zm0 0" fill="#ffe07d"/><path d="m417.820312 272.515625h-29.691406v33.03125c0 9.121094-7.394531 16.515625-16.515625 16.515625h-231.226562c-9.121094 0-16.515625-7.394531-16.515625-16.515625v-33.03125h-29.691406c-10.25 0-18.289063 9.285156-16.28125 19.335937 16.648437 83.164063 90.039062 145.824219 178.101562 145.824219s161.453125-62.660156 178.097656-145.824219c2.011719-10.050781-6.027344-19.335937-16.277344-19.335937zm0 0" fill="#966a5b"/><path d="m168.78125 415.398438c25.886719 14.207031 55.601562 22.277343 87.21875 22.277343s61.347656-8.074219 87.234375-22.28125c-16.769531-30.925781-49.582031-52.039062-87.234375-52.039062s-70.449219 21.117187-87.21875 52.042969zm0 0" fill="#ff8086"/><path d="m189.097656 198.199219c-3.636718 0-6.96875-2.425781-7.960937-6.101563-2.886719-10.648437-16.855469-18.675781-32.492188-18.675781s-29.605469 8.027344-32.492187 18.675781c-1.191406 4.398438-5.75 6.980469-10.128906 5.808594-4.402344-1.191406-7-5.730469-5.804688-10.132812 4.925781-18.175782 24.839844-30.871094 48.425781-30.871094 23.589844 0 43.5 12.695312 48.425781 30.871094 1.195313 4.402343-1.402343 8.941406-5.804687 10.132812-.726563.195312-1.449219.292969-2.167969.292969zm0 0" fill="#966a5b"/><path d="m402.976562 198.199219c-3.636718 0-6.96875-2.425781-7.960937-6.101563-2.886719-10.648437-16.855469-18.675781-32.492187-18.675781-15.636719 0-29.605469 8.027344-32.492188 18.675781-1.191406 4.398438-5.726562 6.980469-10.128906 5.808594-4.402344-1.191406-7-5.730469-5.804688-10.132812 4.925782-18.175782 24.839844-30.871094 48.425782-30.871094 23.589843 0 43.5 12.695312 48.425781 30.871094 1.195312 4.402343-1.402344 8.941406-5.804688 10.132812-.726562.195312-1.449219.292969-2.167969.292969zm0 0" fill="#966a5b"/><path d="m280.773438 487.226562c-141.382813 0-256-114.617187-256-256 0-64.386718 23.773437-123.222656 63.015624-168.210937-53.796874 46.929687-87.789062 115.988281-87.789062 192.984375 0 141.386719 114.613281 256 256 256 77 0 146.050781-33.992188 192.980469-87.792969-44.984375 39.242188-103.820313 63.019531-168.207031 63.019531zm0 0" fill="#ffd064"/><path d="m123.871094 272.515625h-29.691406c-10.25 0-18.289063 9.285156-16.28125 19.335937.371093 1.84375.917968 3.617188 1.339843 5.4375h44.632813zm0 0" fill="#785353"/><path d="m417.820312 272.515625h-29.691406v24.773437h44.632813c.421875-1.820312.96875-3.59375 1.339843-5.4375 2.007813-10.050781-6.03125-19.335937-16.28125-19.335937zm0 0" fill="#785353"/><path d="m123.871094 272.515625v33.03125c0 9.121094 7.394531 16.515625 16.515625 16.515625h231.226562c9.121094 0 16.515625-7.394531 16.515625-16.515625v-33.03125zm0 0" fill="#fff"/><path d="m123.871094 272.515625h264.257812v24.773437h-264.257812zm0 0" fill="#fff5d7"/><path d="m256 421.160156c28.085938 0 54.269531-7.925781 76.671875-21.460937-18.171875-22.175781-45.765625-36.34375-76.671875-36.34375s-58.488281 14.171875-76.660156 36.347656c22.40625 13.535156 48.574218 21.457031 76.660156 21.457031zm0 0" fill="#e5646e"/><path d="m256 437.675781c2.773438 0 5.515625-.140625 8.257812-.265625v-32.765625c0-4.558593-3.695312-8.257812-8.257812-8.257812s-8.257812 3.699219-8.257812 8.257812v32.765625c2.742187.125 5.484374.265625 8.257812.265625zm0 0" fill="#ff9a9f"/><path d="m256 421.160156c2.777344 0 5.519531-.078125 8.257812-.230468v-16.285157c0-4.558593-3.695312-8.257812-8.257812-8.257812s-8.257812 3.699219-8.257812 8.257812v16.285157c2.738281.152343 5.480468.230468 8.257812.230468zm0 0" fill="#ff8086"/></svg>