<?xml version="1.0" encoding="UTF-8"?>
<svg width="362px" height="379px" viewBox="0 0 362 379" version="1.1" xmlns="http://www.w3.org/2000/svg" xmlns:xlink="http://www.w3.org/1999/xlink">
    <!-- Generator: Sketch 58 (84663) - https://sketch.com -->
    <title>Artboard</title>
    <desc>Created with Sketch.</desc>
    <defs>
        <filter x="-11.7%" y="-7.3%" width="123.4%" height="121.2%" filterUnits="objectBoundingBox" id="filter-1">
            <feOffset dx="0" dy="-2" in="SourceAlpha" result="shadowOffsetOuter1"></feOffset>
            <feGaussianBlur stdDeviation="2" in="shadowOffsetOuter1" result="shadowBlurOuter1"></feGaussianBlur>
            <feColorMatrix values="0 0 0 0 0.933333333   0 0 0 0 0.666666667   0 0 0 0 0.482352941  0 0 0 1 0" type="matrix" in="shadowBlurOuter1" result="shadowMatrixOuter1"></feColorMatrix>
            <feMerge>
                <feMergeNode in="shadowMatrixOuter1"></feMergeNode>
                <feMergeNode in="SourceGraphic"></feMergeNode>
            </feMerge>
        </filter>
        <rect id="path-2" x="0.833287646" y="0" width="297.688596" height="330" rx="28"></rect>
        <filter x="-13.4%" y="-8.8%" width="126.9%" height="124.2%" filterUnits="objectBoundingBox" id="filter-3">
            <feOffset dx="0" dy="11" in="SourceAlpha" result="shadowOffsetOuter1"></feOffset>
            <feGaussianBlur stdDeviation="11.5" in="shadowOffsetOuter1" result="shadowBlurOuter1"></feGaussianBlur>
            <feColorMatrix values="0 0 0 0 0   0 0 0 0 0   0 0 0 0 0  0 0 0 0.181900131 0" type="matrix" in="shadowBlurOuter1"></feColorMatrix>
        </filter>
    </defs>
    <g id="Artboard" stroke="none" stroke-width="1" fill="none" fill-rule="evenodd">
        <g id="Card---Credit-Card" filter="url(#filter-1)" transform="translate(31.000000, 25.000000)">
            <g id="Rectangle">
                <use fill="black" fill-opacity="1" filter="url(#filter-3)" xlink:href="#path-2"></use>
                <use fill="#FFFFFF" fill-rule="evenodd" xlink:href="#path-2"></use>
            </g>
            <g id="square-2" transform="translate(42.000000, 19.000000)">
                <g id="NoCreditCard" transform="translate(44.000000, 0.000000)">
                    <path d="M104.328,40.95 C106.276461,40.95 107.856,42.9244243 107.856,45.36 C107.856,47.7955757 106.276461,49.77 104.328,49.77 L84.168,49.77 C86.1164606,49.77 87.696,51.7444243 87.696,54.18 C87.696,56.6155757 86.1164606,58.59 84.168,58.59 L95.256,58.59 C97.2044606,58.59 98.784,60.5644243 98.784,63 C98.784,65.4355757 97.2044606,67.41 95.256,67.41 L90.1283478,67.41 C87.6715932,67.41 85.68,69.3844243 85.68,71.82 C85.68,73.4437172 86.688,74.9137172 88.704,76.23 C90.6524606,76.23 92.232,78.2044243 92.232,80.64 C92.232,83.0755757 90.6524606,85.05 88.704,85.05 L46.872,85.05 C44.9235394,85.05 43.344,83.0755757 43.344,80.64 C43.344,78.2044243 44.9235394,76.23 46.872,76.23 L27.216,76.23 C25.2675394,76.23 23.688,74.2555757 23.688,71.82 C23.688,69.3844243 25.2675394,67.41 27.216,67.41 L47.376,67.41 C49.3244606,67.41 50.904,65.4355757 50.904,63 C50.904,60.5644243 49.3244606,58.59 47.376,58.59 L34.776,58.59 C32.8275394,58.59 31.248,56.6155757 31.248,54.18 C31.248,51.7444243 32.8275394,49.77 34.776,49.77 L54.936,49.77 C52.9875394,49.77 51.408,47.7955757 51.408,45.36 C51.408,42.9244243 52.9875394,40.95 54.936,40.95 L104.328,40.95 Z M104.328,58.59 C106.276461,58.59 107.856,60.5644243 107.856,63 C107.856,65.4355757 106.276461,67.41 104.328,67.41 C102.379539,67.41 100.8,65.4355757 100.8,63 C100.8,60.5644243 102.379539,58.59 104.328,58.59 Z" id="Background" fill-opacity="0.2" fill="#66B9BF" fill-rule="evenodd"></path>
                    <path d="M36.5029466,44.1765207 L75.4344651,36.3856754 C77.0591079,36.0605574 78.6397014,37.1140303 78.9648195,38.7386731 C78.9791069,38.8100688 78.9907905,38.8819609 78.9998468,38.9542067 L82.8130784,69.3736585 C83.0086297,70.9336386 81.9666769,72.3799748 80.4250534,72.6884793 L41.4935349,80.4793246 C39.8688921,80.8044426 38.2882986,79.7509697 37.9631805,78.1263269 C37.9488931,78.0549312 37.9372095,77.9830391 37.9281532,77.9107933 L34.1149216,47.4913415 C33.9193703,45.9313614 34.9613231,44.4850252 36.5029466,44.1765207 Z" id="Rectangle" fill="#FFFFFF" fill-rule="evenodd"></path>
                    <path d="M42.0058046,80.2767156 L40.4013847,80.6072603 C39.2993031,80.8343126 38.2643867,79.8562515 38.0898341,78.4226998 L34.2971695,47.2745988 C34.122617,45.8410471 34.8745278,44.4948615 35.9766093,44.2678092 L76.3853862,35.9427397 C77.4874677,35.7156874 78.5223841,36.6937485 78.6969367,38.1273002 C78.8670089,39.5240558 79.0025494,40.6372124 79.1035582,41.4667698 M79.3916399,43.8327049 C79.4831324,44.5841075 79.5632525,45.242111 79.632,45.8067154" id="Shape" stroke="#07889B" stroke-width="2.5" stroke-linecap="round"></path>
                    <path d="M38.5430695,45.6132276 L73.8126315,38.7283839 C75.4387925,38.4109469 77.0143901,39.4718773 77.3318271,41.0980384 C77.3442766,41.1618147 77.3546508,41.2259786 77.3629332,41.2904287 L80.7856911,67.924967 C80.9872353,69.4933042 79.9368724,70.9488234 78.3849305,71.2517724 L43.1153685,78.1366161 C41.4892075,78.4540531 39.9136099,77.3931227 39.5961729,75.7669616 C39.5837234,75.7031853 39.5733492,75.6390214 39.5650668,75.5745713 L36.1423089,48.940033 C35.9407647,47.3716958 36.9911276,45.9161766 38.5430695,45.6132276 Z" id="Rectangle" fill="#07889B" fill-rule="evenodd"></path>
                    <rect id="Rectangle" stroke="#07889B" stroke-width="2.5" fill="#FFFFFF" fill-rule="evenodd" x="45.098" y="49.13" width="42.356" height="34.67" rx="4"></rect>
                    <rect id="Rectangle" fill="#E8F0FE" fill-rule="evenodd" x="45.108" y="56.07" width="42.336" height="8.82"></rect>
                    <path d="M87.7822409,56.07 L54.5987647,56.07 M84.7582409,64.26 L45.0231036,64.26 M63.0315,76.23 L48.7643421,76.23 M52.0576875,56.07 L48.4306875,56.07" id="lines" stroke="#66B9BF" stroke-width="2.5" stroke-linecap="round" stroke-linejoin="round"></path>
                </g>
                <text id="We-want-to-help-you" font-family="AvenirNext-Regular, Avenir Next" font-size="20" font-weight="normal" fill="#6B6B6B">
                    <tspan x="14.5051389" y="192">We want to help you </tspan>
                    <tspan x="34.9651389" y="219">save, there is no </tspan>
                    <tspan x="12.8051389" y="246">hidden fee, pay what </tspan>
                    <tspan x="70.0851389" y="273">you see.</tspan>
                </text>
                <text id="No-Hidden-Fees" font-family="AvenirNext-Bold, Avenir Next" font-size="20" font-weight="bold" fill="#4A4A4A">
                    <tspan x="30.8451389" y="146">No Hidden Fees</tspan>
                </text>
            </g>
        </g>
    </g>
</svg>