<?xml version="1.0" encoding="UTF-8"?>
<svg width="362px" height="379px" viewBox="0 0 362 379" version="1.1" xmlns="http://www.w3.org/2000/svg" xmlns:xlink="http://www.w3.org/1999/xlink">
    <!-- Generator: Sketch 58 (84663) - https://sketch.com -->
    <title>Artboard</title>
    <desc>Created with Sketch.</desc>
    <defs>
        <filter x="-11.7%" y="-7.3%" width="123.4%" height="121.2%" filterUnits="objectBoundingBox" id="filter-1">
            <feOffset dx="0" dy="-2" in="SourceAlpha" result="shadowOffsetOuter1"></feOffset>
            <feGaussianBlur stdDeviation="2" in="shadowOffsetOuter1" result="shadowBlurOuter1"></feGaussianBlur>
            <feColorMatrix values="0 0 0 0 0.933333333   0 0 0 0 0.666666667   0 0 0 0 0.482352941  0 0 0 1 0" type="matrix" in="shadowBlurOuter1" result="shadowMatrixOuter1"></feColorMatrix>
            <feMerge>
                <feMergeNode in="shadowMatrixOuter1"></feMergeNode>
                <feMergeNode in="SourceGraphic"></feMergeNode>
            </feMerge>
        </filter>
        <rect id="path-2" x="0" y="0" width="299" height="330" rx="28"></rect>
        <filter x="-13.4%" y="-8.8%" width="126.8%" height="124.2%" filterUnits="objectBoundingBox" id="filter-3">
            <feOffset dx="0" dy="11" in="SourceAlpha" result="shadowOffsetOuter1"></feOffset>
            <feGaussianBlur stdDeviation="11.5" in="shadowOffsetOuter1" result="shadowBlurOuter1"></feGaussianBlur>
            <feColorMatrix values="0 0 0 0 0   0 0 0 0 0   0 0 0 0 0  0 0 0 0.181900131 0" type="matrix" in="shadowBlurOuter1"></feColorMatrix>
        </filter>
    </defs>
    <g id="Artboard" stroke="none" stroke-width="1" fill="none" fill-rule="evenodd">
        <g id="square-3" transform="translate(32.000000, 25.000000)">
            <g id="Card---Tasks" filter="url(#filter-1)">
                <g id="Rectangle">
                    <use fill="black" fill-opacity="1" filter="url(#filter-3)" xlink:href="#path-2"></use>
                    <use fill="#FFFFFF" fill-rule="evenodd" xlink:href="#path-2"></use>
                </g>
                <text id="Plan-For-The-future" font-family="AvenirNext-Bold, Avenir Next" font-size="20" font-weight="bold" fill="#4A4A4A">
                    <tspan x="58.024319" y="185">Plan For The future</tspan>
                    <tspan x="149.184319" y="212"></tspan>
                    <tspan x="27.074319" y="239" font-family="AvenirNext-Regular, Avenir Next" font-weight="normal">Orin help you to save, plan </tspan>
                    <tspan x="20.634319" y="266" font-family="AvenirNext-Regular, Avenir Next" font-weight="normal">and stay on top of your bills.</tspan>
                </text>
            </g>
            <g id="Done" transform="translate(97.000000, 48.000000)">
                <path d="M57.664,28.16 C59.3031811,28.16 60.632,29.538963 60.632,31.24 C60.632,32.941037 59.3031811,34.32 57.664,34.32 L84.8,34.32 C86.4391811,34.32 87.768,35.698963 87.768,37.4 C87.768,39.101037 86.4391811,40.48 84.8,40.48 L94.128,40.48 C95.7671811,40.48 97.096,41.858963 97.096,43.56 C97.096,45.261037 95.7671811,46.64 94.128,46.64 L86.072,46.64 C84.4328189,46.64 83.104,48.018963 83.104,49.72 C83.104,51.421037 84.4328189,52.8 86.072,52.8 L88.616,52.8 C90.2551811,52.8 91.584,54.178963 91.584,55.88 C91.584,57.581037 90.2551811,58.96 88.616,58.96 L26.712,58.96 C25.0728189,58.96 23.744,57.581037 23.744,55.88 C23.744,54.178963 25.0728189,52.8 26.712,52.8 L10.176,52.8 C8.53681886,52.8 7.208,51.421037 7.208,49.72 C7.208,48.018963 8.53681886,46.64 10.176,46.64 L27.136,46.64 C28.7751811,46.64 30.104,45.261037 30.104,43.56 C30.104,41.858963 28.7751811,40.48 27.136,40.48 L16.536,40.48 C14.8968189,40.48 13.568,39.101037 13.568,37.4 C13.568,35.698963 14.8968189,34.32 16.536,34.32 L33.496,34.32 C31.8568189,34.32 30.528,32.941037 30.528,31.24 C30.528,29.538963 31.8568189,28.16 33.496,28.16 L57.664,28.16 Z M95.824,52.8 C97.4631811,52.8 98.792,54.178963 98.792,55.88 C98.792,57.581037 97.4631811,58.96 95.824,58.96 C94.1848189,58.96 92.856,57.581037 92.856,55.88 C92.856,54.178963 94.1848189,52.8 95.824,52.8 Z" id="BG" fill-opacity="0.2" fill="#66B9BF"></path>
                <path d="M51.515253,65.825238 C53.0177038,66.1350313 54.5599942,66.1886108 55.6759881,66.1024537 M57.5047644,65.9334579 L57.5047644,65.9334579 C58.4724853,65.8142214 59.4194014,65.6242778 60.3406168,65.3687255 C62.3667244,64.8066675 64.26851,63.9272408 65.9938849,62.7846889 C67.7388561,61.6291602 69.3033868,60.2044953 70.6335931,58.566807 C71.7943257,57.1377669 72.7766383,55.5465258 73.5447297,53.8303657 C74.3067562,52.1277564 74.8579312,50.3021932 75.163295,48.3900819 C75.3452565,47.2506843 75.4399358,46.0805553 75.4399358,44.8873979 C75.4399358,43.1356357 75.2358514,41.4335118 74.8510919,39.805404 C74.4376803,38.0560553 73.8156828,36.3921566 73.0141375,34.8439472 C72.0103104,32.9050244 70.7248773,31.1475506 69.2148755,29.6309228 C68.0400031,28.450895 66.7291819,27.4166699 65.3092775,26.5562248 C63.7107492,25.5875357 61.9739661,24.8390996 60.1372621,24.3508363 C58.5226871,23.9216231 56.8308984,23.6934579 55.0879358,23.6934579 C52.8975758,23.6934579 50.7880327,24.0537911 48.8109867,24.7206397 C46.8753708,25.3735141 45.0667569,26.320192 43.4336436,27.5101686 C41.751107,28.7361577 40.2548542,30.2203944 38.9979215,31.9076481 C37.3687865,34.0945304 36.1416916,36.6224663 35.4321171,39.371198 C34.978081,41.1300318 34.7359358,42.979267 34.7359358,44.8873979 C34.7359358,47.9165809 35.3461896,50.797335 36.4456547,53.4036105 C37.7827032,56.573076 39.843234,59.3366218 42.4095587,61.4675539 C44.5634294,63.2560074 47.0735786,64.5988512 49.8113121,65.3620672" id="Shape" stroke="#66B9BF" stroke-width="2.5" fill="#FFFFFF" stroke-linecap="round" transform="translate(55.087936, 44.916434) rotate(-44.000000) translate(-55.087936, -44.916434) "></path>
                <g id="bling" stroke-width="1" transform="translate(70.384000, 19.800000)" stroke-linecap="round" stroke-linejoin="round">
                    <path d="M4.452,0 L4.452,2.64" id="Line" stroke="#A4C3FE" stroke-width="2.5"></path>
                    <path d="M4.452,6.16 L4.452,8.8" id="Line" stroke="#A4C3FE" stroke-width="2.5"></path>
                    <path d="M1.484,3.128 L1.484,5.672" id="Line" stroke="#A4C3FE" stroke-width="2.5" transform="translate(1.484000, 4.400000) rotate(-90.000000) translate(-1.484000, -4.400000) "></path>
                    <path d="M7.42,3.128 L7.42,5.672" id="Line" stroke="#07889B" stroke-width="2.5" transform="translate(7.420000, 4.400000) rotate(-90.000000) translate(-7.420000, -4.400000) "></path>
                </g>
                <g id="bling" stroke-width="1" transform="translate(36.040000, 65.120000)" stroke="#A4C3FE" stroke-linecap="round" stroke-linejoin="round">
                    <path d="M3.604,0 L3.604,1.76" id="Line" stroke-width="2.5"></path>
                    <path d="M3.604,5.28 L3.604,7.04" id="Line" stroke-width="2.5"></path>
                    <path d="M1.06,2.672 L1.06,4.368" id="Line" stroke-width="2.5" transform="translate(1.060000, 3.520000) rotate(-90.000000) translate(-1.060000, -3.520000) "></path>
                    <path d="M6.148,2.672 L6.148,4.368" id="Line" stroke-width="2.5" transform="translate(6.148000, 3.520000) rotate(-90.000000) translate(-6.148000, -3.520000) "></path>
                </g>
                <path d="M50.2552134,32.7426886 C49.4080994,32.361624 48.5269339,32.047088 47.6177891,31.8054039 C46.205036,31.4298423 44.7247208,31.2301978 43.1996286,31.2301978 C42.574466,31.2301978 41.9568274,31.2637446 41.3482823,31.3292039 M39.3392792,31.6671088 C38.7851465,31.7946463 38.2407109,31.9490642 37.7072981,32.1289819 C37.3133377,32.2618629 36.9253901,32.4086536 36.5439892,32.5687977" id="Shape" stroke="#A4C3FE" stroke-width="2.5" fill="#FFFFFF" stroke-linecap="round" transform="translate(43.399601, 31.986443) rotate(-44.000000) translate(-43.399601, -31.986443) "></path>
            </g>
        </g>
    </g>
</svg>